:SAMPLES-PER-SECOND 24
:FULLY-SPECIFIED
:DEGREES
344
root  -6.57359 41.2349 34.1439 -7.21442 5.67041 -13.9552
RightUpLeg  -7.1534 -8.49139 0.417535
RightLeg  26.1533 -9.71868 -5.37485
RightFoot  -8.63552 -0.180279 5.14408
RightToes  -2.08645e-008 3.77894e-005 6.81332e-007
Spine  -7.30474 -2.4332 -3.09412
Spine1  9.36278 -4.85559 9.06115
HEad  -21.1315 5.11532 2.33996
LeftShoulder1  6.72811 -12.6215 -35.6897
LeftArm  14.9906 30.1979 -30.2621
LeftForeArm  165.582 -69.2537 -153.813
LeftHand  -0.363761 -3.98852 4.77495
RightShoulder  3.83005 6.48834 32.4461
RightArm  15.7968 -34.6151 22.1794
RightForeArm  162.271 73.2224 146.925
RightHand  -0.439313 8.48915 -4.04726
LeftUpLeg  -6.1104 19.2107 3.32716
LeftLeg  16.6288 7.69063 1.9627
LeftFoot  3.20063 -0.022461 0.0235299
LeftToes  1.24767e-006 1.47042e-008 1.32732e-009
345
root  -6.58563 40.5639 33.5878 -3.25769 1.64432 -10.8377
RightUpLeg  -5.18272 -11.4098 2.59794
RightLeg  34.056 -5.83124 -4.47154
RightFoot  -8.02768 -0.313852 9.05503
RightToes  -2.08645e-008 3.77894e-005 6.81332e-007
Spine  -8.27058 -1.58752 -1.00529
Spine1  8.08802 -2.78204 4.96441
HEad  -24.6141 5.95132 2.10416
LeftShoulder1  6.46904 -12.4938 -34.4271
LeftArm  15.0796 30.4663 -28.9542
LeftForeArm  165.9 -68.1862 -155.175
LeftHand  -0.377495 -3.65303 5.10491
RightShoulder  3.71167 6.37077 31.7003
RightArm  17.7415 -32.0523 25.0196
RightForeArm  162.586 72.8845 147.637
RightHand  -0.269759 8.75653 -2.59654
LeftUpLeg  -12.1271 10.2689 -0.144357
LeftLeg  21.9712 1.621 1.17025
LeftFoot  1.20874 -0.0310505 0.235138
LeftToes  1.24767e-006 1.47042e-008 1.32732e-009
346
root  -6.55652 39.7151 32.7944 1.23392 -4.86514 -6.72785
RightUpLeg  -3.83515 -10.9177 2.34671
RightLeg  37.676 -3.38705 -3.09309
RightFoot  -10.5652 -0.137309 11.5594
RightToes  -2.08645e-008 3.77894e-005 6.81332e-007
Spine  -8.79251 0.353934 -0.254587
Spine1  6.62492 0.166254 0.790992
HEad  -28.9781 6.96534 0.534443
LeftShoulder1  6.63462 -12.678 -34.981
LeftArm  14.0746 28.7415 -26.1208
LeftForeArm  164.189 -66.8 -156.549
LeftHand  -0.348275 -3.0695 5.02033
RightShoulder  3.73261 6.42056 31.7198
RightArm  18.7474 -28.0732 27.4713
RightForeArm  161.713 72.7495 147.787
RightHand  -0.295958 8.8189 -2.8009
LeftUpLeg  -19.5256 11.2624 -5.52377
LeftLeg  25.1557 4.73623 2.76408
LeftFoot  -0.597366 -0.272064 2.9171
LeftToes  1.24767e-006 1.47042e-008 1.32732e-009
347
root  -6.42213 38.8729 31.6908 4.47443 -13.3223 -3.94884
RightUpLeg  -1.79039 -9.16369 1.39185
RightLeg  33.8252 -3.19386 -2.55156
RightFoot  -18.3853 0.36906 8.28259
RightToes  -2.08645e-008 3.77894e-005 6.81332e-007
Spine  -6.329 2.83036 1.15593
Spine1  4.2058 3.30956 -2.65024
HEad  -33.3398 8.63852 -1.77135
LeftShoulder1  7.21834 -13.1638 -37.2245
LeftArm  11.5745 24.729 -22.7155
LeftForeArm  162.235 -67.6077 -155.438
LeftHand  -0.440061 -2.66716 6.55898
RightShoulder  3.95378 6.7008 32.8584
RightArm  19.4879 -21.0278 28.7656
RightForeArm  156.748 74.5277 143.17
RightHand  -0.535081 8.76678 -4.75763
LeftUpLeg  -26.8077 19.5606 -11.2314
LeftLeg  26.1123 7.28047 4.2069
LeftFoot  -2.72649 -0.434926 6.02369
LeftToes  1.24767e-006 1.47042e-008 1.32732e-009
348
root  -6.04665 38.2415 30.445 6.12247 -21.7002 -2.48601
RightUpLeg  -3.29147 -5.32255 0.129039
RightLeg  29.9399 -3.47906 -2.39946
RightFoot  -25.2673 0.28587 3.74344
RightToes  -2.08645e-008 3.77894e-005 6.81332e-007
Spine  -2.45252 4.50784 3.50964
Spine1  2.91829 5.58271 -5.95088
HEad  -37.8496 10.8783 -4.62798
LeftShoulder1  7.81833 -13.6599 -39.3807
LeftArm  8.27776 19.8936 -20.8495
LeftForeArm  159.139 -71.0111 -150.401
LeftHand  -0.645182 -2.00324 10.3199
RightShoulder  4.02257 6.79877 33.1587
RightArm  19.6201 -12.5441 31.6192
RightForeArm  144.159 78.0462 128.809
RightHand  -0.489775 9.00775 -4.32846
LeftUpLeg  -32.1814 24.2687 -14.9553
LeftLeg  25.9246 9.28956 5.22235
LeftFoot  -3.89235 -0.546775 8.74147
LeftToes  1.24767e-006 1.47042e-008 1.32732e-009
